<?xml version="1.0" encoding="utf-8"?>
<!-- Generator: Adobe Illustrator 18.0.0, SVG Export Plug-In . SVG Version: 6.00 Build 0)  -->
<!DOCTYPE svg PUBLIC "-//W3C//DTD SVG 1.1//EN" "http://www.w3.org/Graphics/SVG/1.1/DTD/svg11.dtd">
<svg version="1.1" id="Layer_1" xmlns="http://www.w3.org/2000/svg" xmlns:xlink="http://www.w3.org/1999/xlink" x="0px" y="0px"
	 viewBox="0 0 443.1 270.6" enable-background="new 0 0 443.1 270.6" xml:space="preserve">
<g>
	<path d="M378.4-67.4h12.4v5.2h-18.6v-29h6.2V-67.4z"/>
	<path d="M401.1-62.2H395v-29h6.2V-62.2z"/>
	<path d="M423.9-62.2l-11.2-20.4v20.4h-5.6v-29h7.4l11,20.5v-20.5h5.6v29H423.9z"/>
	<path d="M436.9-62.2v-29H447c10,0,14.4,5.4,14.4,14c0,8.9-4.7,14.9-15,14.9H436.9z M446.1-67.2c6.7,0,9-3.6,9-9.6
		c0-7.2-2.8-9.4-8.6-9.4H443v19H446.1z"/>
	<path d="M470.5-83.9c0,6,15,2.3,15,13c0,6.6-5.3,9.2-11.1,9.2c-5.2,0-10.7-1.7-11.2-9.2l5.6-0.8c0.5,2.8,1.5,5.2,5.8,5.2
		c2.6,0,4.8-0.9,4.8-3.6c0-6-15.1-1.8-15.1-12.8c0-5.6,4.7-8.7,10.6-8.7c5.2,0,9.9,1.6,10.3,8.5l-5.6,0.6c-0.2-2.7-1.4-4.4-4.8-4.4
		C471.9-86.9,470.5-85.7,470.5-83.9z"/>
	<path d="M503.6-91.2l10.2,29h-6.8l-2.4-7h-9.6l-2.2,7h-6.4l9.5-29H503.6z M499.8-85.4h-0.2l-3.6,11.2h7.3L499.8-85.4z"/>
	<path d="M526.5-62.2h-6.2v-10.8l-10-18.1h6.8l6.4,12.4h0.2l6.1-12.4h6.2l-9.4,18V-62.2z"/>
	<path d="M372.3-14.2v-29h10.2c10,0,14.4,5.4,14.4,14c0,8.9-4.7,14.9-15,14.9H372.3z M381.5-19.2c6.7,0,9-3.6,9-9.6
		c0-7.2-2.8-9.4-8.6-9.4h-3.5v19H381.5z"/>
	<path d="M407.4-19.4h12.9v5.2h-19.1v-29h18.4v5.2h-12.2v6.8h11.5v5h-11.5V-19.4z"/>
	<path d="M430.9-14.2l-9.4-29h6.9l6.6,22.9h0.2l6.6-22.9h6.4l-9,29H430.9z"/>
	<path d="M457.2-19.4h12.9v5.2H451v-29h18.4v5.2h-12.2v6.8h11.5v5h-11.5V-19.4z"/>
	<path d="M480.5-19.4h12.4v5.2h-18.6v-29h6.2V-19.4z"/>
	<path d="M494.3-28.6c0-8.6,4.8-15.1,14.1-15.1c9.4,0,13.3,6.5,13.3,14.6c0,9.4-4.5,15.4-13.9,15.4
		C498.2-13.7,494.3-19.9,494.3-28.6z M515.3-28.8c0-6.7-2.6-9.7-7-9.7c-4.7,0-7.6,3.1-7.6,9.8c0,6.9,2.8,9.8,7.4,9.8
		C512.3-18.9,515.3-21.6,515.3-28.8z"/>
	<path d="M532.3-14.2h-6.1v-29h11c7.4,0,9.6,4.4,9.6,9c0,7-3.8,10.6-11.3,10.6h-3.2V-14.2z M534.7-28.5c3.2,0,5.7-0.9,5.7-5.2
		c0-3.7-2.2-4.5-5.2-4.5h-3v9.7H534.7z"/>
	<path d="M581.7-14.2h-5.8v-22.7h-0.2l-6.8,22.7h-5.6L556.8-37h-0.2v22.8H551v-29h9.2l6.1,21.2h0.2l6.1-21.2h9.2V-14.2z"/>
	<path d="M593.7-19.4h12.9v5.2h-19.1v-29h18.4v5.2h-12.2v6.8h11.5v5h-11.5V-19.4z"/>
	<path d="M627.7-14.2l-11.2-20.4v20.4h-5.6v-29h7.4l11,20.5v-20.5h5.6v29H627.7z"/>
	<path d="M646.6-14.2V-38h-8.5v-5.2h23.2v5.2h-8.4v23.8H646.6z"/>
</g>
<polygon points="451,-141.2 369.2,-101.7 532.9,-101.7 "/>
<polygon points="600.3,-97.6 539.3,-49.3 661.2,-49.3 "/>
<g>
	<path fill="#2E3192" d="M86.4-82.7h12.4v5.2H80.2v-29h6.2V-82.7z"/>
	<path fill="#2E3192" d="M109.1-77.5h-6.2v-29h6.2V-77.5z"/>
	<path fill="#2E3192" d="M131.8-77.5l-11.2-20.4v20.4H115v-29h7.4l11,20.5v-20.5h5.6v29H131.8z"/>
	<path fill="#2E3192" d="M144.8-77.5v-29H155c10,0,14.4,5.4,14.4,14c0,8.9-4.7,14.9-15,14.9H144.8z M154-82.4c6.7,0,9-3.6,9-9.6
		c0-7.2-2.8-9.4-8.6-9.4H151v19H154z"/>
	<path fill="#2E3192" d="M178.5-99.1c0,6,15,2.3,15,13c0,6.6-5.3,9.2-11.1,9.2c-5.2,0-10.7-1.7-11.2-9.2l5.6-0.8
		c0.5,2.8,1.5,5.2,5.8,5.2c2.6,0,4.8-0.9,4.8-3.6c0-6-15.1-1.8-15.1-12.8c0-5.6,4.7-8.7,10.6-8.7c5.2,0,9.9,1.6,10.3,8.5l-5.6,0.6
		c-0.2-2.7-1.4-4.4-4.8-4.4C179.9-102.2,178.5-101,178.5-99.1z"/>
	<path fill="#2E3192" d="M211.6-106.4l10.2,29h-6.8l-2.4-7H203l-2.2,7h-6.4l9.5-29H211.6z M207.8-100.6h-0.2l-3.6,11.2h7.3
		L207.8-100.6z"/>
	<path fill="#2E3192" d="M234.5-77.5h-6.2v-10.8l-10-18.1h6.8l6.4,12.4h0.2l6.1-12.4h6.2l-9.4,18V-77.5z"/>
	<path fill="#2E3192" d="M80.2-29.5v-29h10.2c10,0,14.4,5.4,14.4,14c0,8.9-4.7,14.9-15,14.9H80.2z M89.4-34.4c6.7,0,9-3.6,9-9.6
		c0-7.2-2.8-9.4-8.6-9.4h-3.5v19H89.4z"/>
	<path fill="#2E3192" d="M115.3-34.7h12.9v5.2h-19.1v-29h18.4v5.2h-12.2v6.8h11.5v5h-11.5V-34.7z"/>
	<path fill="#2E3192" d="M138.8-29.5l-9.4-29h6.9l6.6,22.9h0.2l6.6-22.9h6.4l-9,29H138.8z"/>
	<path fill="#2E3192" d="M165.1-34.7h12.9v5.2H159v-29h18.4v5.2h-12.2v6.8h11.5v5h-11.5V-34.7z"/>
	<path fill="#2E3192" d="M188.5-34.7h12.4v5.2h-18.6v-29h6.2V-34.7z"/>
	<path fill="#2E3192" d="M202.3-43.8c0-8.6,4.8-15.1,14.1-15.1c9.4,0,13.3,6.5,13.3,14.6c0,9.4-4.5,15.4-13.9,15.4
		C206.2-29,202.3-35.2,202.3-43.8z M223.3-44c0-6.7-2.6-9.7-7-9.7c-4.7,0-7.6,3.1-7.6,9.8c0,6.9,2.8,9.8,7.4,9.8
		C220.3-34.2,223.3-36.9,223.3-44z"/>
	<path fill="#2E3192" d="M240.2-29.5h-6.1v-29h11c7.4,0,9.6,4.4,9.6,9c0,7-3.8,10.6-11.3,10.6h-3.2V-29.5z M242.7-43.8
		c3.2,0,5.7-0.9,5.7-5.2c0-3.7-2.2-4.5-5.2-4.5h-3v9.7H242.7z"/>
	<path fill="#2E3192" d="M289.7-29.5h-5.8v-22.7h-0.2l-6.8,22.7h-5.6l-6.6-22.8h-0.2v22.8h-5.6v-29h9.2l6.1,21.2h0.2l6.1-21.2h9.2
		V-29.5z"/>
	<path fill="#2E3192" d="M301.7-34.7h12.9v5.2h-19.1v-29h18.4v5.2h-12.2v6.8h11.5v5h-11.5V-34.7z"/>
	<path fill="#2E3192" d="M335.7-29.5l-11.2-20.4v20.4h-5.6v-29h7.4l11,20.5v-20.5h5.6v29H335.7z"/>
	<path fill="#2E3192" d="M354.5-29.5v-23.8H346v-5.2h23.2v5.2h-8.4v23.8H354.5z"/>
</g>
<g>
	<path fill="#00A79D" d="M211.8,209.8c-7.8,0-13.5,6.2-13.5,14s5.7,14,13.5,14s13.5-6.2,13.5-14S219.6,209.8,211.8,209.8z"/>
	<path fill="#00A79D" d="M214.7,143.2c-4.4-3.1-10.3-3.8-17.3-3.8h-3.7v38.4h3.8c8.9,0,14.5-1.5,18.4-4.9c3.7-3.2,6-8.2,6-14.4
		C221.9,152,219.3,146.5,214.7,143.2z"/>
	<path fill="#00A79D" d="M320,143.1h-0.2c-1.6,4.7-3.9,10.9-5.9,16.2l-2.5,6.6h16.8l-2.6-7C323.9,154.1,321.6,147.9,320,143.1z"/>
	<path fill="#00A79D" d="M13,10.3v250h416.5v-250H13z M39.3,127.5H53v50.4h27.3v12h-41V127.5z M59,234c-2.6,2.6-6.4,4.3-12.6,4.3
		h-6.8v-29h6.8c5.8,0,9.3,1.4,11.8,3.6c2.9,2.5,4.9,6.4,4.9,10.8C63.1,227.9,61.3,231.6,59,234z M92.9,238.3H77.2v-29h15.3v0.9H78.1
		v12.6H91v0.9H78.1v13.7h14.7V238.3z M100.8,189.8H87.1v-62.3h13.7V189.8z M116.6,238.3h-0.9l-11.4-29h1l10.8,27.6h0l10.8-27.6h1
		L116.6,238.3z M156.5,238.3h-15.6v-29h15.3v0.9h-14.4v12.6h12.8v0.9h-12.8v13.7h14.7V238.3z M168.6,189.8h-12.9L137,164.7
		c-4-5.4-7.8-10.7-11.7-16.1l-0.2,0.1c0.1,5.9,0.2,12,0.2,18v23.2h-13.2v-62.3h12.9l18.7,25.1c4,5.4,7.8,10.7,11.7,16.1l0.2-0.1
		c-0.1-5.9-0.2-12-0.2-18v-23.2h13.2V189.8z M187.1,238.3h-16v-29h0.9v28.1h15.1V238.3z M211.8,238.7c-8.2,0-14.4-6.6-14.4-14.9
		s6.2-14.9,14.4-14.9s14.4,6.6,14.4,14.9S220.1,238.7,211.8,238.7z M225.3,182.1c-6.4,5.2-15.3,7.7-28.4,7.7H180v-62.3h17.5
		c11.1,0,19.7,1.8,26.2,6.3c7.7,5.3,12,14.1,12,24.8C235.6,168.4,231.9,176.7,225.3,182.1z M256.4,223.3c-1.7,1.4-4,2.2-8.4,2.2
		h-6.6v12.8h-0.9v-29h7.6c4.3,0,6.7,0.8,8.4,2.2c1.8,1.4,2.8,3.4,2.8,5.9C259.1,219.9,258.1,221.9,256.4,223.3z M243.2,186.2v-13.9
		c6.6,4.5,15,6.5,19.9,6.5c5,0,8.7-2,8.7-6.6c0-5.8-5.9-6.3-13.9-8.9c-8.6-2.8-16.4-7.1-16.4-17.9c0-11.6,8.8-18.9,21.9-18.9
		c6.1,0,13.6,1.5,19,4.5v13.5c-6.6-4.1-14.3-6-19.1-6c-4.6,0-8,1.7-8,5.9c0,5.5,5.8,5.9,13.3,8.4c9.4,3.1,17,7.5,17,18.5
		c0,12.1-9.2,19.5-22.6,19.5C256.7,190.7,249.1,189.2,243.2,186.2z M299.3,238.3h-0.9V211h0l-12.2,17.6L273.9,211h0v27.3h-0.9v-29
		h0.9l12.3,17.8l12.3-17.8h0.9V238.3z M331,238.3h-15.6v-29h15.3v0.9h-14.4v12.6h12.8v0.9h-12.8v13.7H331V238.3z M332.4,176.7h-25.1
		l-5.1,13.1h-14l25.3-62.3h13.3l25.3,62.3h-14.6L332.4,176.7z M367.8,238.3h-0.9l-20.4-27.4h0v27.4h-0.9v-29h0.9l20.4,27.4h0v-27.4
		h0.9V238.3z M402.8,210.2h-10.2v28.1h-0.9v-28.1h-10.2v-0.9h21.4V210.2z M379.3,161.6v28.2h-13.7v-28.1l-24-34.2h15.9l7.6,11.3
		c2.4,3.5,5.1,7.7,7.5,11.4h0.2c2.4-3.8,4.9-7.7,7.5-11.5l7.5-11.2h15.4L379.3,161.6z"/>
	<path fill="#00A79D" d="M57.7,213.6c-2.5-2.2-5.9-3.4-11.2-3.4h-5.8v27.2h5.8c5.5,0,9.3-1.4,11.9-4c2.5-2.5,3.9-6,3.9-9.6
		C62.2,219.8,60.5,216.1,57.7,213.6z"/>
	<path fill="#00A79D" d="M255.8,212.2c-1.5-1.2-3.5-2-7.8-2h-6.6v14.4h6.6c4.2,0,6.2-0.7,7.8-2c1.5-1.2,2.4-2.9,2.4-5.2
		C258.2,215.1,257.3,213.4,255.8,212.2z"/>
</g>
<g>
	<g>
		<path d="M101-169.7h13.7v50.4H142v12h-41V-169.7z"/>
		<path d="M148.8-169.7h13.7v62.3h-13.7V-169.7z"/>
		<path d="M198.7-132.5c-4-5.4-7.8-10.7-11.7-16.1l-0.2,0.1c0.1,5.9,0.2,12,0.2,18v23.2h-13.2v-62.3h12.9l18.7,25.1
			c4,5.4,7.8,10.7,11.7,16.1l0.2-0.1c-0.1-5.9-0.2-12-0.2-18v-23.2h13.2v62.3h-12.9L198.7-132.5z"/>
		<path d="M241.7-169.7h17.5c11.1,0,19.7,1.8,26.2,6.3c7.7,5.3,12,14.1,12,24.8c0,9.8-3.7,18.2-10.3,23.6
			c-6.4,5.2-15.3,7.7-28.4,7.7h-16.9V-169.7z M259.1-119.3c8.9,0,14.5-1.5,18.4-4.9c3.7-3.2,6-8.2,6-14.4c0-6.5-2.6-12.1-7.2-15.3
			c-4.4-3.1-10.3-3.8-17.3-3.8h-3.7v38.4H259.1z"/>
		<path d="M304.9-124.9c6.6,4.5,15,6.5,19.9,6.5c5,0,8.7-2,8.7-6.6c0-5.8-5.9-6.3-13.9-8.9c-8.6-2.8-16.4-7.1-16.4-17.9
			c0-11.6,8.8-18.9,21.9-18.9c6.1,0,13.6,1.5,19,4.5v13.5c-6.6-4.1-14.3-6-19.1-6c-4.6,0-8,1.7-8,5.9c0,5.5,5.8,5.9,13.3,8.4
			c9.4,3.1,17,7.5,17,18.5c0,12.1-9.2,19.5-22.6,19.5c-6.2,0-13.9-1.5-19.7-4.6V-124.9z"/>
		<path d="M375.1-169.7h13.3l25.3,62.3H399l-5-13.1h-25.1l-5.1,13.1h-14L375.1-169.7z M373.1-131.2h16.8l-2.6-7
			c-1.8-4.9-4-11.1-5.7-15.8h-0.2c-1.6,4.7-3.9,10.9-5.9,16.2L373.1-131.2z"/>
		<path d="M427.3-135.5l-24-34.2h15.9l7.6,11.3c2.4,3.5,5.1,7.7,7.5,11.4h0.2c2.4-3.8,4.9-7.7,7.5-11.5l7.5-11.2h15.4L441-135.6
			v28.2h-13.7V-135.5z"/>
	</g>
	<g>
		<path d="M101.3-87.8h6.8c5.8,0,9.3,1.4,11.8,3.6c2.9,2.5,4.9,6.4,4.9,10.8c0,4.1-1.8,7.9-4.1,10.2c-2.6,2.6-6.4,4.3-12.6,4.3h-6.8
			V-87.8z M108.1-59.8c5.5,0,9.3-1.4,11.9-4c2.5-2.5,3.9-6,3.9-9.6c0-4-1.7-7.7-4.6-10.2c-2.5-2.2-5.9-3.4-11.2-3.4h-5.8v27.2H108.1
			z"/>
		<path d="M138.9-87.8h15.3v0.9h-14.4v12.6h12.8v0.9h-12.8v13.7h14.7v0.9h-15.6V-87.8z"/>
		<path d="M165.9-87.8h1l10.8,27.6h0l10.8-27.6h1l-11.4,29h-0.9L165.9-87.8z"/>
		<path d="M202.5-87.8h15.3v0.9h-14.4v12.6h12.8v0.9h-12.8v13.7h14.7v0.9h-15.6V-87.8z"/>
		<path d="M232.7-87.8h0.9v28.1h15.1v0.9h-16V-87.8z"/>
		<path d="M273.5-88.3c8.2,0,14.4,6.6,14.4,14.9s-6.2,14.9-14.4,14.9S259-65,259-73.3S265.2-88.3,273.5-88.3z M273.5-59.3
			c7.8,0,13.5-6.2,13.5-14s-5.7-14-13.5-14s-13.5,6.2-13.5,14S265.7-59.3,273.5-59.3z"/>
		<path d="M302.1-58.9v-29h7.6c4.3,0,6.7,0.8,8.4,2.2c1.8,1.4,2.8,3.4,2.8,5.9c0,2.5-1,4.5-2.8,5.9c-1.7,1.4-4,2.2-8.4,2.2H303v12.8
			H302.1z M309.7-72.5c4.2,0,6.2-0.7,7.8-2c1.5-1.2,2.4-2.9,2.4-5.2c0-2.3-1-4-2.4-5.2c-1.5-1.2-3.5-2-7.8-2H303v14.4H309.7z"/>
		<path d="M334.6-87.8h0.9l12.3,17.8l12.3-17.8h0.9v29h-0.9v-27.3h0l-12.2,17.6l-12.2-17.6h0v27.3h-0.9V-87.8z"/>
		<path d="M377-87.8h15.3v0.9h-14.4v12.6h12.8v0.9h-12.8v13.7h14.7v0.9H377V-87.8z"/>
		<path d="M407.2-87.8h0.9l20.4,27.4h0v-27.4h0.9v29h-0.9l-20.4-27.4h0v27.4h-0.9V-87.8z"/>
		<path d="M453.3-86.9h-10.2v-0.9h21.4v0.9h-10.2v28.1h-0.9V-86.9z"/>
	</g>
</g>
</svg>
